<svg xmlns="http://www.w3.org/2000/svg" xmlns:xlink="http://www.w3.org/1999/xlink" width="40" zoomAndPan="magnify" viewBox="0 0 30 30.000001" height="40" preserveAspectRatio="xMidYMid meet" version="1.0"><defs><g/></defs><g fill="#100007" fill-opacity="1"><g transform="translate(1.817161, 22.1351)"><g><path d="M 1.367188 -17.140625 L 1.367188 0 L 5.410156 0 L 5.410156 -17.140625 Z M 7.527344 -11.4375 L 5.410156 -7.789062 L 9.972656 0 L 14.273438 0 Z M 7.527344 -11.4375 "/></g></g></g><g fill="#100007" fill-opacity="1"><g transform="translate(12.832169, 22.1351)"><g><path d="M 1.367188 -0.03125 L 5.410156 -0.03125 L 5.410156 -17.175781 L 1.367188 -17.207031 Z M 8.375 -0.03125 C 8.375 -0.03125 13.949219 0.359375 13.949219 -4.300781 C 13.949219 -8.113281 9.027344 -8.539062 7.953125 -8.601562 C 8.996094 -8.570312 13.328125 -8.800781 13.328125 -12.871094 C 13.328125 -17.175781 7.105469 -17.175781 7.105469 -17.175781 C 7.105469 -17.175781 9.90625 -17.042969 9.90625 -12.9375 C 9.90625 -8.800781 7.722656 -8.601562 7.722656 -8.601562 L 7.789062 -8.601562 C 8.082031 -8.539062 10.527344 -8.210938 10.527344 -4.335938 C 10.527344 -0.226562 8.375 -0.03125 8.375 -0.03125 Z M 8.375 -0.03125 "/></g></g></g></svg>