<svg xmlns="http://www.w3.org/2000/svg" xmlns:xlink="http://www.w3.org/1999/xlink" width="150" zoomAndPan="magnify" viewBox="0 0 112.5 112.499997" height="150" preserveAspectRatio="xMidYMid meet" version="1.0"><defs><g/><clipPath id="e6ccb5d904"><path d="M 0 0 L 112.003906 0 L 112.003906 112.003906 L 0 112.003906 Z M 0 0 " clip-rule="nonzero"/></clipPath></defs><g clip-path="url(#e6ccb5d904)"><path fill="#ffffff" d="M 0 0 L 112.003906 0 L 112.003906 112.003906 L 0 112.003906 Z M 0 0 " fill-opacity="1" fill-rule="nonzero"/><path fill="#ffffff" d="M 0 0 L 112.003906 0 L 112.003906 112.003906 L 0 112.003906 Z M 0 0 " fill-opacity="1" fill-rule="nonzero"/></g><g fill="#100007" fill-opacity="1"><g transform="translate(5.143641, 85.393977)"><g><path d="M 5.28125 -66.128906 L 5.28125 0 L 20.871094 0 L 20.871094 -66.128906 Z M 29.042969 -44.128906 L 20.871094 -30.046875 L 38.472656 0 L 55.066406 0 Z M 29.042969 -44.128906 "/></g></g></g><g fill="#100007" fill-opacity="1"><g transform="translate(47.637932, 85.393977)"><g><path d="M 5.28125 -0.125 L 20.871094 -0.125 L 20.871094 -66.257812 L 5.28125 -66.382812 Z M 32.3125 -0.125 C 32.3125 -0.125 53.808594 1.382812 53.808594 -16.59375 C 53.808594 -31.304688 34.824219 -32.941406 30.675781 -33.191406 C 34.699219 -33.066406 51.421875 -33.945312 51.421875 -49.660156 C 51.421875 -66.257812 27.40625 -66.257812 27.40625 -66.257812 C 27.40625 -66.257812 38.21875 -65.753906 38.21875 -49.914062 C 38.21875 -33.945312 29.796875 -33.191406 29.796875 -33.191406 L 30.046875 -33.191406 C 31.179688 -32.941406 40.609375 -31.683594 40.609375 -16.722656 C 40.609375 -0.878906 32.3125 -0.125 32.3125 -0.125 Z M 32.3125 -0.125 "/></g></g></g></svg>