<svg xmlns="http://www.w3.org/2000/svg" xmlns:xlink="http://www.w3.org/1999/xlink" width="500" zoomAndPan="magnify" viewBox="0 0 375 374.999991" height="500" preserveAspectRatio="xMidYMid meet" version="1.0"><defs><g/></defs><g fill="#f05593" fill-opacity="1"><g transform="translate(-18.03381, 317.350803)"><g><path d="M 21.339844 -267.257812 L 21.339844 0 L 84.34375 0 L 84.34375 -267.257812 Z M 117.371094 -178.339844 L 84.34375 -121.433594 L 155.476562 0 L 222.546875 0 Z M 117.371094 -178.339844 "/></g></g></g><g fill="#f05593" fill-opacity="1"><g transform="translate(153.701321, 317.350803)"><g><path d="M 21.339844 -0.507812 L 84.34375 -0.507812 L 84.34375 -267.765625 L 21.339844 -268.273438 Z M 130.582031 -0.507812 C 130.582031 -0.507812 217.464844 5.589844 217.464844 -67.070312 C 217.464844 -126.515625 140.742188 -133.121094 123.976562 -134.136719 C 140.234375 -133.628906 207.8125 -137.1875 207.8125 -200.699219 C 207.8125 -267.765625 110.765625 -267.765625 110.765625 -267.765625 C 110.765625 -267.765625 154.460938 -265.734375 154.460938 -201.714844 C 154.460938 -137.1875 120.417969 -134.136719 120.417969 -134.136719 L 121.433594 -134.136719 C 126.007812 -133.121094 164.113281 -128.039062 164.113281 -67.578125 C 164.113281 -3.558594 130.582031 -0.507812 130.582031 -0.507812 Z M 130.582031 -0.507812 "/></g></g></g></svg>